<?xml version="1.0" encoding="utf-8"?>
<!-- Generator: Adobe Illustrator 24.1.0, SVG Export Plug-In . SVG Version: 6.00 Build 0)  -->
<svg version="1.2" baseProfile="tiny" id="Layer_1" xmlns="http://www.w3.org/2000/svg" xmlns:xlink="http://www.w3.org/1999/xlink"
	 x="0px" y="0px" viewBox="0 0 154.7 65.5" xml:space="preserve">
<g>
	<g>
		<path fill="#233E99" d="M114.1,37c0.6-0.7,1.2-1.3,1.9-1.7c0.7-0.4,1.5-0.7,2.4-0.8c0.8-0.1,1.7-0.1,2.5,0.2
			c0.8,0.2,1.6,0.6,2.3,1.2l5.1,4c-3,3.9-8,1.6-8.7,1.1c0,0-2.7-1.6-4.1-1.6c-1.4-0.1-2.7,0.2-3.9,0.9L114.1,37z"/>
		<path fill="#233E99" d="M19.1,23c0-1.9-0.6-3.2-2.9-3.2h-0.3v-0.7H18c2.1,0,3.4,0.7,4.4,1.9l11.4,14.1V19.1h1.3v21.8h-0.7
			l-14-17.4v17.1h-1.3L19.1,23z"/>
		<path fill="#233E99" d="M47.9,33.1h-1c-3.2,0-5.2,1.3-5.2,3.2c0,2.1,1.5,3.1,3.1,3.1c1.6,0,2.4-1,3.1-1.9V33.1z M49.2,40.5
			l-1.1-1.5h-0.2c-0.6,0.8-2.1,1.8-4.5,1.8c-1.8,0-4.7-1-4.7-4.5c0-3.6,3.9-4.5,8.3-4.5h1c0-4.5-1.5-5.5-3.4-5.5
			c-1.8,0-3.1,0.7-3.6,2.8h-1.5c0-1.1,0-2.1,0.8-2.9c0.8-0.8,2.9-1.1,4.9-1.1c2.9,0,5.7,1,5.7,6.8v8.8H49.2z"/>
		<path fill="#233E99" d="M55.7,26.6h-2.3v-1.3h2.3v-2.9l1.6-1.9h1.3v4.9h3.9v1.3h-3.9v10.1c0,1.9,0.8,2.9,2.3,2.9
			c1.1,0,1.8-0.3,2.4-0.7l0.3,0.7c-0.7,0.5-1.8,1.3-4.1,1.3c-2.3,0-3.9-1.3-3.9-4.2V26.6z"/>
		<path fill="#233E99" d="M78.9,40.5h-1.6l-1.1-1.3H76c-0.8,0.8-2.3,1.6-4.2,1.6c-2.8,0-5.5-1.1-5.5-5.8v-5.8c0-1.9-0.3-3.2-2.3-3.2
			h-0.3v-0.7h2.6c2.3,0,2.9,0.7,2.9,3.9V35c0,3.3,1.8,4.4,3.6,4.4c1.3,0,2.4-0.8,3.3-1.7l0-12.4h2.9L78.9,40.5z"/>
		<path fill="#233E99" d="M84.1,29.2c0-1.9-0.3-3.2-2.3-3.2h-0.3v-0.7h2.6c1.6,0,2.4,0.5,2.8,1.5H87c0.6-0.8,1.9-1.8,3.9-1.8
			c0.7,0,1.5,0.2,1.9,0.5c0.5,0.3,0.8,0.8,1.1,1.5l-1.3,1c-0.5-0.6-1.5-1-2.6-1c-1.3,0-2.4,0.6-3.1,1.6l0,12h-2.9V29.2z"/>
		<path fill="#233E99" d="M104.2,32.1c0-3.6-1.1-5.7-3.4-5.7c-1.9,0-3.4,2.4-3.4,5.7H104.2z M107.1,33.4h-9.7c0,3.6,1.6,6.2,4.4,6.2
			c2.1,0,3.4-1,4.5-2.6l0.7,0.5c-1.5,2.4-3.4,3.4-5.8,3.4c-4.5,0-6.8-3.6-6.8-8c0-4.4,2.3-8,6.3-8c4.4,0,6.5,2.6,6.5,7.1L107.1,33.4
			z"/>
		<path fill="#233E99" d="M126.2,15.5c-2.2,0-4.2,0.4-6.1,1.2c-1.9,0.8-3.6,1.9-5,3.4c-1.4,1.4-2.5,3.1-3.3,4.9
			c-0.8,1.9-1.2,3.9-1.2,6v9l0.2-0.5c1.1-3.5,3.8-11.5,10.4-14.1c8.3-3.2,13.3-5.6,14.2-6.8l0.3,0.2c-1.1,1.6-3.7,8.4-9.6,10.6
			c-1.3,0.5-2.7,1.1-4.1,1.8c2.5-0.6,4.9-0.9,4.9-0.9c2-0.1,14.8-3,14.8-14.8L126.2,15.5z"/>
		<g>
			<path fill="#ED1C24" d="M66.8,11.4c1,0,1.8,0.3,2.4,0.8c0.6,0.5,0.9,1.2,0.9,2.1c0,0.9-0.3,1.5-0.9,2.1c-0.6,0.5-1.4,0.8-2.4,0.8
				h-1.5v2l1,0.2v1.1h-3.7v-1.1l1-0.2v-6.4l-1-0.2v-1.1h1H66.8z M65.3,15.8h1.5c0.5,0,0.9-0.1,1.1-0.4c0.3-0.3,0.4-0.6,0.4-1
				c0-0.4-0.1-0.8-0.4-1.1c-0.3-0.3-0.6-0.4-1.1-0.4h-1.5V15.8z"/>
			<path fill="#ED1C24" d="M71.9,19.3l0.9-0.2v-7.1l-1-0.2v-1.1h2.7v3.8c0.2-0.3,0.5-0.5,0.8-0.7c0.3-0.2,0.6-0.3,1-0.3
				c0.7,0,1.2,0.2,1.6,0.7c0.4,0.5,0.6,1.2,0.6,2.1v2.7l0.9,0.2v1.1H76v-1.1l0.8-0.2v-2.7c0-0.5-0.1-0.9-0.3-1.1
				C76.3,15.1,76,15,75.7,15c-0.2,0-0.5,0-0.7,0.1c-0.2,0.1-0.3,0.2-0.5,0.4v3.6l0.8,0.2v1.1h-3.4V19.3z"/>
			<path fill="#ED1C24" d="M85.5,20.4c0-0.1-0.1-0.2-0.1-0.3c0-0.1-0.1-0.2-0.1-0.4c-0.2,0.2-0.5,0.4-0.8,0.6
				c-0.3,0.2-0.7,0.2-1,0.2c-0.7,0-1.2-0.2-1.6-0.5c-0.4-0.4-0.6-0.8-0.6-1.4c0-0.6,0.2-1.1,0.7-1.4c0.5-0.3,1.2-0.5,2.2-0.5h0.9
				v-0.7c0-0.3-0.1-0.6-0.3-0.7c-0.2-0.2-0.5-0.3-0.8-0.3c-0.2,0-0.4,0-0.5,0.1c-0.2,0-0.3,0.1-0.4,0.2L83,15.9h-1.4l0-1.5
				c0.3-0.2,0.7-0.4,1.1-0.6c0.4-0.2,0.9-0.2,1.4-0.2c0.8,0,1.5,0.2,2,0.6c0.5,0.4,0.8,1,0.8,1.7v2.7c0,0.1,0,0.2,0,0.3
				c0,0.1,0,0.2,0,0.3l0.5,0.1v1.1H85.5z M83.9,19.2c0.3,0,0.5-0.1,0.7-0.2c0.2-0.1,0.4-0.3,0.5-0.4v-1h-0.9c-0.4,0-0.7,0.1-0.9,0.3
				c-0.2,0.2-0.3,0.4-0.3,0.6c0,0.2,0.1,0.4,0.2,0.5C83.5,19.1,83.7,19.2,83.9,19.2z"/>
			<path fill="#ED1C24" d="M89.6,19.3l0.9-0.2V15l-1-0.2v-1.1h2.6l0.1,1c0.2-0.3,0.4-0.6,0.6-0.8c0.2-0.2,0.5-0.3,0.9-0.3
				c0.1,0,0.2,0,0.3,0s0.2,0,0.3,0.1L94,15.3l-0.7,0c-0.3,0-0.5,0.1-0.7,0.2c-0.2,0.1-0.3,0.2-0.4,0.4v3.2l0.9,0.2v1.1h-3.5V19.3z"
				/>
			<path fill="#ED1C24" d="M95.8,14.8v-1.1h2.6l0.1,0.9c0.2-0.3,0.5-0.6,0.8-0.7c0.3-0.2,0.7-0.3,1.1-0.3c0.4,0,0.8,0.1,1.1,0.3
				s0.5,0.5,0.7,0.9c0.2-0.4,0.5-0.6,0.8-0.8c0.3-0.2,0.7-0.3,1.2-0.3c0.7,0,1.2,0.2,1.6,0.7c0.4,0.5,0.6,1.1,0.6,2.1v2.8l0.9,0.2
				v1.1h-3.4v-1.1l0.8-0.2v-2.8c0-0.5-0.1-0.9-0.2-1.1c-0.2-0.2-0.4-0.3-0.7-0.3c-0.3,0-0.5,0.1-0.7,0.2c-0.2,0.1-0.3,0.3-0.4,0.5
				c0,0.1,0,0.1,0,0.2c0,0.1,0,0.1,0,0.2v3.1l0.7,0.2v1.1h-3.2v-1.1l0.7-0.2v-2.8c0-0.5-0.1-0.8-0.2-1c-0.2-0.2-0.4-0.3-0.7-0.3
				c-0.2,0-0.5,0-0.6,0.1c-0.2,0.1-0.3,0.2-0.5,0.4v3.6l0.8,0.2v1.1h-3.4v-1.1l0.9-0.2V15L95.8,14.8z"/>
		</g>
	</g>
	<g>
		<path fill="#233E99" d="M45.8,46.8L45.8,46.8l-2.3,5.6h-0.6l-2.3-5.6l0,0l0.1,2.8v2l0.8,0.1v0.6H39v-0.6l0.8-0.1v-5.5L39,46v-0.6
			h0.8H41l2.2,5.7h0l2.2-5.7h2V46l-0.8,0.1v5.5l0.8,0.1v0.6h-2.5v-0.6l0.8-0.1v-2L45.8,46.8z"/>
		<path fill="#233E99" d="M48.2,51.8l0.8-0.1V48l-0.8-0.1v-0.6h1.7v4.4l0.8,0.1v0.6h-2.5V51.8z M49.9,45.9H49v-1h0.9V45.9z"/>
		<path fill="#233E99" d="M53.7,51.8c0.3,0,0.6-0.1,0.8-0.3c0.2-0.2,0.4-0.4,0.4-0.7h0.8l0,0c0,0.4-0.2,0.8-0.6,1.2
			c-0.4,0.3-0.9,0.5-1.4,0.5c-0.8,0-1.3-0.2-1.7-0.7s-0.6-1.1-0.6-1.9v-0.2c0-0.7,0.2-1.4,0.6-1.8c0.4-0.5,1-0.7,1.7-0.7
			c0.4,0,0.8,0.1,1.1,0.2c0.3,0.1,0.6,0.3,0.8,0.6l0,1.1h-0.8l-0.2-0.8c-0.1-0.1-0.3-0.2-0.4-0.3c-0.2-0.1-0.4-0.1-0.6-0.1
			c-0.5,0-0.8,0.2-1.1,0.5s-0.3,0.8-0.3,1.3v0.2c0,0.5,0.1,1,0.3,1.3C52.9,51.6,53.2,51.8,53.7,51.8z"/>
		<path fill="#233E99" d="M56.7,47.8v-0.6h1.6l0.1,0.8c0.1-0.3,0.3-0.5,0.5-0.6c0.2-0.1,0.5-0.2,0.7-0.2c0.1,0,0.1,0,0.2,0
			c0.1,0,0.1,0,0.2,0L60,48.1l-0.5,0c-0.2,0-0.5,0.1-0.6,0.2c-0.2,0.1-0.3,0.3-0.4,0.5v3l0.8,0.1v0.6h-2.5v-0.6l0.8-0.1V48
			L56.7,47.8z"/>
		<path fill="#233E99" d="M60.6,49.8c0-0.8,0.2-1.4,0.6-1.9s1-0.7,1.7-0.7c0.7,0,1.3,0.2,1.7,0.7c0.4,0.5,0.6,1.1,0.6,1.9v0.1
			c0,0.8-0.2,1.4-0.6,1.9c-0.4,0.5-1,0.7-1.7,0.7c-0.7,0-1.3-0.2-1.7-0.7s-0.6-1.1-0.6-1.9V49.8z M61.6,49.9c0,0.5,0.1,1,0.3,1.4
			c0.2,0.4,0.6,0.5,1,0.5c0.4,0,0.8-0.2,1-0.5c0.2-0.4,0.3-0.8,0.3-1.4v-0.1c0-0.5-0.1-1-0.3-1.4c-0.2-0.4-0.6-0.5-1-0.5
			s-0.8,0.2-1,0.5c-0.2,0.4-0.3,0.8-0.3,1.4V49.9z"/>
		<path fill="#233E99" d="M66,51.8l0.8-0.1V48L66,47.8v-0.6h1.6l0.1,0.8c0.2-0.3,0.4-0.5,0.6-0.6c0.3-0.2,0.6-0.2,0.9-0.2
			c0.6,0,1,0.2,1.3,0.5c0.3,0.3,0.5,0.8,0.5,1.5v2.5l0.8,0.1v0.6h-2.5v-0.6l0.8-0.1v-2.5c0-0.5-0.1-0.8-0.3-1
			c-0.2-0.2-0.5-0.3-0.8-0.3c-0.3,0-0.5,0.1-0.7,0.2s-0.4,0.3-0.5,0.5v3l0.8,0.1v0.6H66V51.8z"/>
		<path fill="#233E99" d="M76.1,51.6c-0.2,0.3-0.4,0.5-0.6,0.6c-0.3,0.1-0.6,0.2-0.9,0.2c-0.6,0-1-0.2-1.3-0.5
			c-0.3-0.4-0.5-0.9-0.5-1.7V48l-0.6-0.1v-0.6h0.6h0.9v3.1c0,0.6,0.1,0.9,0.2,1.1c0.2,0.2,0.4,0.3,0.8,0.3c0.3,0,0.6-0.1,0.8-0.2
			s0.4-0.3,0.5-0.6v-3l-0.7-0.1v-0.6h0.7h0.9v4.4l0.6,0.1v0.6h-1.4L76.1,51.6z"/>
		<path fill="#233E99" d="M80,46v1.2h1v0.7h-1v3.1c0,0.2,0,0.4,0.2,0.5s0.2,0.1,0.4,0.1c0.1,0,0.2,0,0.3,0s0.2,0,0.3,0l0.1,0.6
			c-0.1,0.1-0.2,0.1-0.4,0.1c-0.2,0-0.3,0.1-0.5,0.1c-0.4,0-0.7-0.1-0.9-0.3s-0.3-0.6-0.3-1.1v-3.1h-0.8v-0.7h0.8V46H80z"/>
		<path fill="#233E99" d="M82,47.8v-0.6h1.6l0.1,0.8c0.1-0.3,0.3-0.5,0.5-0.6c0.2-0.1,0.5-0.2,0.7-0.2c0.1,0,0.1,0,0.2,0
			c0.1,0,0.1,0,0.2,0l-0.1,0.9l-0.5,0c-0.2,0-0.5,0.1-0.6,0.2c-0.2,0.1-0.3,0.3-0.4,0.5v3l0.8,0.1v0.6H82v-0.6l0.8-0.1V48L82,47.8z"
			/>
		<path fill="#233E99" d="M86,51.8l0.8-0.1V48L86,47.8v-0.6h1.7v4.4l0.8,0.1v0.6H86V51.8z M87.8,45.9h-0.9v-1h0.9V45.9z"/>
		<path fill="#233E99" d="M90.9,46v1.2h1v0.7h-1v3.1c0,0.2,0,0.4,0.2,0.5s0.2,0.1,0.4,0.1c0.1,0,0.2,0,0.3,0s0.2,0,0.3,0l0.1,0.6
			c-0.1,0.1-0.2,0.1-0.4,0.1c-0.2,0-0.3,0.1-0.5,0.1c-0.4,0-0.7-0.1-0.9-0.3S90,51.6,90,51.1v-3.1h-0.8v-0.7H90V46H90.9z"/>
		<path fill="#233E99" d="M92.8,51.8l0.8-0.1V48l-0.8-0.1v-0.6h1.7v4.4l0.8,0.1v0.6h-2.5V51.8z M94.6,45.9h-0.9v-1h0.9V45.9z"/>
		<path fill="#233E99" d="M96.1,49.8c0-0.8,0.2-1.4,0.6-1.9s1-0.7,1.7-0.7c0.7,0,1.3,0.2,1.7,0.7c0.4,0.5,0.6,1.1,0.6,1.9v0.1
			c0,0.8-0.2,1.4-0.6,1.9c-0.4,0.5-1,0.7-1.7,0.7c-0.7,0-1.3-0.2-1.7-0.7s-0.6-1.1-0.6-1.9V49.8z M97,49.9c0,0.5,0.1,1,0.3,1.4
			c0.2,0.4,0.6,0.5,1,0.5c0.4,0,0.8-0.2,1-0.5c0.2-0.4,0.3-0.8,0.3-1.4v-0.1c0-0.5-0.1-1-0.3-1.4c-0.2-0.4-0.6-0.5-1-0.5
			s-0.8,0.2-1,0.5c-0.2,0.4-0.3,0.8-0.3,1.4V49.9z"/>
		<path fill="#233E99" d="M101.4,51.8l0.8-0.1V48l-0.8-0.1v-0.6h1.6l0.1,0.8c0.2-0.3,0.4-0.5,0.6-0.6c0.3-0.2,0.6-0.2,0.9-0.2
			c0.6,0,1,0.2,1.3,0.5c0.3,0.3,0.5,0.8,0.5,1.5v2.5l0.8,0.1v0.6h-2.5v-0.6l0.8-0.1v-2.5c0-0.5-0.1-0.8-0.3-1
			c-0.2-0.2-0.5-0.3-0.8-0.3c-0.3,0-0.5,0.1-0.7,0.2s-0.4,0.3-0.5,0.5v3l0.8,0.1v0.6h-2.5V51.8z"/>
	</g>
	<rect x="110.7" y="49.5" fill="#233E99" width="17.8" height="0.5"/>
	<rect x="17.3" y="49.5" fill="#233E99" width="17.8" height="0.5"/>
</g>
</svg>
